<svg width="1920" height="474" viewBox="0 0 1920 474" fill="none" xmlns="http://www.w3.org/2000/svg">
<g clip-path="url(#clip0_1077_275)">
<rect width="1920" height="474" fill="#121212"/>
<g filter="url(#filter0_f_1077_275)">
<ellipse cx="127.073" cy="440.916" rx="141.934" ry="144.411" fill="#46CBB9"/>
<ellipse cx="269.256" cy="440.916" rx="141.934" ry="144.411" fill="#00FF11"/>
<ellipse cx="127.569" cy="287.34" rx="141.934" ry="144.411" fill="#8800FF"/>
<ellipse cx="410.947" cy="551.392" rx="141.934" ry="144.411" transform="rotate(-68.6084 410.947 551.392)" fill="url(#paint0_linear_1077_275)"/>
</g>
<g filter="url(#filter1_f_1077_275)">
<ellipse cx="1337.43" cy="-95.5187" rx="164.962" ry="167.841" transform="rotate(122.584 1337.43 -95.5187)" fill="#000AFF"/>
<ellipse cx="1576.52" cy="-138.147" rx="164.962" ry="167.841" transform="rotate(122.584 1576.52 -138.147)" fill="url(#paint1_linear_1077_275)"/>
<ellipse cx="1140.56" cy="-25.9134" rx="164.962" ry="167.841" transform="rotate(53.9761 1140.56 -25.9134)" fill="url(#paint2_linear_1077_275)"/>
</g>
</g>
<defs>
<filter id="filter0_f_1077_275" x="-213.023" y="-55.2333" width="966.255" height="947.091" filterUnits="userSpaceOnUse" color-interpolation-filters="sRGB">
<feFlood flood-opacity="0" result="BackgroundImageFix"/>
<feBlend mode="normal" in="SourceGraphic" in2="BackgroundImageFix" result="shape"/>
<feGaussianBlur stdDeviation="99.0813" result="effect1_foregroundBlur_1077_275"/>
</filter>
<filter id="filter1_f_1077_275" x="609.081" y="-765.195" width="1499.08" height="1269.87" filterUnits="userSpaceOnUse" color-interpolation-filters="sRGB">
<feFlood flood-opacity="0" result="BackgroundImageFix"/>
<feBlend mode="normal" in="SourceGraphic" in2="BackgroundImageFix" result="shape"/>
<feGaussianBlur stdDeviation="182.308" result="effect1_foregroundBlur_1077_275"/>
</filter>
<linearGradient id="paint0_linear_1077_275" x1="269.013" y1="549.358" x2="552.88" y2="549.358" gradientUnits="userSpaceOnUse">
<stop stop-color="#0AFFFD"/>
<stop offset="1" stop-color="#7FE786"/>
</linearGradient>
<linearGradient id="paint1_linear_1077_275" x1="1411.55" y1="-140.511" x2="1741.48" y2="-140.511" gradientUnits="userSpaceOnUse">
<stop stop-color="#000AFF"/>
<stop offset="1" stop-color="#00E0FF"/>
</linearGradient>
<linearGradient id="paint2_linear_1077_275" x1="975.598" y1="-28.2774" x2="1305.52" y2="-28.2774" gradientUnits="userSpaceOnUse">
<stop stop-color="#000AFF"/>
<stop offset="1" stop-color="#00E0FF"/>
</linearGradient>
<clipPath id="clip0_1077_275">
<rect width="1920" height="474" fill="white"/>
</clipPath>
</defs>
</svg>
