<svg xmlns="http://www.w3.org/2000/svg" width="1920" height="474" fill="none" viewBox="0 0 1920 474"><g clip-path="url(#clip0_1077_275)"><rect width="1920" height="474" fill="#121212"/><g filter="url(#filter0_f_1077_275)"><ellipse cx="127.073" cy="440.916" fill="#46CBB9" rx="141.934" ry="144.411"/><ellipse cx="269.256" cy="440.916" fill="#0F1" rx="141.934" ry="144.411"/><ellipse cx="127.569" cy="287.34" fill="#80F" rx="141.934" ry="144.411"/><ellipse cx="410.947" cy="551.392" fill="url(#paint0_linear_1077_275)" rx="141.934" ry="144.411" transform="rotate(-68.6084 410.947 551.392)"/></g><g filter="url(#filter1_f_1077_275)"><ellipse cx="1337.43" cy="-95.519" fill="#000AFF" rx="164.962" ry="167.841" transform="rotate(122.584 1337.43 -95.5187)"/><ellipse cx="1576.52" cy="-138.147" fill="url(#paint1_linear_1077_275)" rx="164.962" ry="167.841" transform="rotate(122.584 1576.52 -138.147)"/><ellipse cx="1140.56" cy="-25.913" fill="url(#paint2_linear_1077_275)" rx="164.962" ry="167.841" transform="rotate(53.9761 1140.56 -25.9134)"/></g></g><defs><filter id="filter0_f_1077_275" width="966.255" height="947.091" x="-213.023" y="-55.233" color-interpolation-filters="sRGB" filterUnits="userSpaceOnUse"><feFlood flood-opacity="0" result="BackgroundImageFix"/><feBlend in="SourceGraphic" in2="BackgroundImageFix" mode="normal" result="shape"/><feGaussianBlur result="effect1_foregroundBlur_1077_275" stdDeviation="99.081"/></filter><filter id="filter1_f_1077_275" width="1499.08" height="1269.87" x="609.081" y="-765.195" color-interpolation-filters="sRGB" filterUnits="userSpaceOnUse"><feFlood flood-opacity="0" result="BackgroundImageFix"/><feBlend in="SourceGraphic" in2="BackgroundImageFix" mode="normal" result="shape"/><feGaussianBlur result="effect1_foregroundBlur_1077_275" stdDeviation="182.308"/></filter><linearGradient id="paint0_linear_1077_275" x1="269.013" x2="552.88" y1="549.358" y2="549.358" gradientUnits="userSpaceOnUse"><stop stop-color="#0AFFFD"/><stop offset="1" stop-color="#7FE786"/></linearGradient><linearGradient id="paint1_linear_1077_275" x1="1411.55" x2="1741.48" y1="-140.511" y2="-140.511" gradientUnits="userSpaceOnUse"><stop stop-color="#000AFF"/><stop offset="1" stop-color="#00E0FF"/></linearGradient><linearGradient id="paint2_linear_1077_275" x1="975.598" x2="1305.52" y1="-28.277" y2="-28.277" gradientUnits="userSpaceOnUse"><stop stop-color="#000AFF"/><stop offset="1" stop-color="#00E0FF"/></linearGradient><clipPath id="clip0_1077_275"><rect width="1920" height="474" fill="#fff"/></clipPath></defs></svg>