<svg width="115" height="116" viewBox="0 0 115 116" fill="none" xmlns="http://www.w3.org/2000/svg">
<path d="M57.7692 0.92334L60.3389 26.3229L66.9497 1.66446L65.4117 27.1473L75.8924 3.86864L70.2866 28.7748L84.3657 7.47878L74.8373 31.1632L92.1502 12.4014L78.9459 34.2506L99.0442 18.509L82.5061 37.9571L104.869 25.6433L85.4255 42.1867L109.474 33.6197L87.6288 46.8299L112.74 42.2315L89.0586 51.7663L114.583 51.2557L89.6781 56.8682L114.954 60.4586L89.4712 62.0034L113.843 69.6017L88.4431 67.0389L111.281 78.4484L86.6207 71.8443L107.333 86.7695L84.051 76.2951L102.1 94.3494L80.8007 80.2761L95.7202 100.992L76.9538 83.6841L88.3571 106.525L72.61 86.4309L80.2018 110.805L67.8819 88.4454L71.4654 113.722L62.8919 89.6753L62.3744 115.199L57.7692 90.0889L53.1641 115.199L52.6465 89.6753L44.073 113.722L47.6565 88.4454L35.3367 110.805L42.9284 86.4309L27.1813 106.525L38.5847 83.6841L19.8182 100.992L34.7378 80.2761L13.438 94.3494L31.4874 76.2951L8.20592 86.7695L28.9177 71.8443L4.25752 78.4484L27.0953 67.0389L1.69505 69.6017L26.0673 62.0034L0.584866 60.4586L25.8603 56.8682L0.95573 51.2557L26.4798 51.7663L2.79803 42.2315L27.9097 46.8299L6.06406 33.6197L30.1129 42.1867L10.6692 25.6433L33.0324 37.9571L16.4943 18.509L36.5926 34.2506L23.3883 12.4014L40.7012 31.1632L31.1728 7.47878L45.2519 28.7748L39.6461 3.86864L50.1267 27.1473L48.5888 1.66446L55.1995 26.3229L57.7692 0.92334Z" fill="black"/>
<path d="M67.3843 56.5003L66.1539 57.7413L58.8448 50.4217V68.7207H57.078V50.4217L49.7689 57.7413L48.5385 56.5003L57.9614 47.0774L67.3843 56.5003Z" fill="white"/>
</svg>
