<svg width="226" height="59" viewBox="0 0 226 59" fill="none" xmlns="http://www.w3.org/2000/svg">
<path d="M39.0696 26.7636C39.1062 26.7636 39.1611 26.8002 39.2343 26.8734C39.1977 26.91 39.1611 26.9649 39.1245 27.0381C39.1245 27.0747 39.0879 27.093 39.0147 27.093C38.722 27.1662 38.4292 27.1845 38.1364 27.1479C37.8803 27.0747 37.6607 27.1845 37.4777 27.4773C37.3679 27.6602 37.313 27.8798 37.313 28.136C37.313 28.3922 37.2947 28.6483 37.2581 28.9045C37.1849 29.7462 37.1117 30.5696 37.0386 31.3747C37.002 32.1432 36.9654 32.93 36.9288 33.7351C36.8922 34.9062 36.8739 36.0773 36.8739 37.2483C36.8739 38.4194 36.8556 39.5905 36.819 40.7615C36.7824 41.6032 36.7275 42.4449 36.6543 43.2866C36.6177 44.1284 36.5994 44.9701 36.5994 45.8118C36.636 47.2024 36.6909 48.593 36.7641 49.9837C36.8373 51.4109 36.9105 52.8381 36.9837 54.2654C36.9837 54.5947 37.0203 54.9241 37.0934 55.2535C37.1666 55.6194 37.2398 55.9671 37.313 56.2964C37.313 56.3696 37.2764 56.4428 37.2032 56.516C37.1666 56.6258 37.13 56.6624 37.0934 56.6258C37.0203 56.6258 36.9105 56.6075 36.7641 56.5709C36.6543 56.5343 36.5994 56.4794 36.5994 56.4062C36.4896 56.0403 36.3798 55.6743 36.27 55.3084C36.1969 54.9424 36.142 54.5581 36.1054 54.1556C36.0322 52.5088 35.959 50.9169 35.8858 49.3798C35.8492 47.8428 35.7943 46.4705 35.7211 45.2628C35.7943 42.5181 35.8675 39.9564 35.9407 37.5777C36.0139 35.199 36.0871 32.8386 36.1603 30.4964C36.1603 30.2402 36.1603 30.0024 36.1603 29.7828C36.1969 29.5266 36.2334 29.2705 36.27 29.0143C36.4164 28.2824 36.4164 27.8981 36.27 27.8615C36.1603 27.7883 35.8126 27.8432 35.2271 28.0262C34.422 28.2824 33.7815 28.7947 33.3058 29.5632C32.6837 30.4781 32.0432 31.3747 31.3845 32.253C30.7624 33.1313 30.1402 34.0096 29.5181 34.8879C28.3471 36.5713 27.1028 38.1998 25.7854 39.7735C24.5045 41.3471 23.2053 42.9207 21.8879 44.4943C20.8998 45.6654 19.9117 46.7998 18.9236 47.8977C17.9356 49.0322 16.9109 50.1667 15.8496 51.3011C15.0811 52.1062 14.2577 52.8198 13.3794 53.442C12.5011 54.0641 11.5679 54.6313 10.5798 55.1437C9.44533 55.7292 8.23767 56.0586 6.95682 56.1318C6.00533 56.1684 5.10873 56.0037 4.26703 55.6377C3.46192 55.2718 2.8032 54.6496 2.29086 53.7713C1.8883 53.1126 1.57724 52.4356 1.35766 51.7403C1.13809 51.045 1.01 50.3313 0.973408 49.5994C0.863621 47.9526 0.900216 46.3607 1.0832 44.8237C1.30277 43.2866 1.61383 41.7313 2.01639 40.1577C2.34575 38.95 2.71171 37.7607 3.11426 36.5896C3.51682 35.382 3.97426 34.1926 4.4866 33.0215C5.87724 29.7279 7.41427 26.5624 9.09767 23.5249C10.8177 20.4509 12.739 17.4866 14.8615 14.6321C15.5934 13.6807 16.3253 12.7475 17.0573 11.8326C17.8258 10.9177 18.6675 10.0577 19.5824 9.25257C20.5339 8.41086 21.5951 7.60576 22.7662 6.83725C23.1322 6.61767 23.5164 6.45299 23.919 6.3432C24.3215 6.19682 24.7241 6.08703 25.1266 6.01384C26.8832 5.64788 28.4385 6.10533 29.7926 7.38618C30.4147 7.97171 30.9271 8.61214 31.3296 9.30746C31.7688 9.96618 32.1347 10.6798 32.4275 11.4483C32.6471 11.9241 32.83 12.4181 32.9764 12.9304C33.1228 13.4062 33.2692 13.9002 33.4156 14.4126C33.4888 14.559 33.4339 14.6687 33.2509 14.7419C33.1777 14.7785 33.1045 14.7968 33.0313 14.7968C32.9581 14.7602 32.9215 14.7053 32.9215 14.6321C32.6654 14.0832 32.4641 13.5709 32.3177 13.0951C32.0249 12.3632 31.7139 11.6496 31.3845 10.9543C31.0551 10.259 30.6526 9.60023 30.1768 8.9781C29.5181 8.02661 28.6947 7.29469 27.7066 6.78235C26.8649 6.3066 25.9683 6.23341 25.0168 6.56277C23.9922 6.92873 23.1322 7.38618 22.4368 7.93512C21.156 8.88661 19.9849 9.92959 18.9236 11.0641C17.899 12.1619 16.9109 13.333 15.9594 14.5773C13.9466 17.2853 12.1168 20.0849 10.47 22.976C8.8598 25.8671 7.37767 28.8679 6.02363 31.9785C5.25511 33.7717 4.5598 35.5832 3.93767 37.413C3.31554 39.2062 2.8215 41.0726 2.45554 43.0122C2.27256 43.8539 2.10788 44.7139 1.96149 45.5922C1.85171 46.4705 1.83341 47.3488 1.9066 48.2271C1.9432 48.776 1.99809 49.325 2.07128 49.8739C2.14447 50.4594 2.23596 51.0267 2.34575 51.5756C2.41894 51.8684 2.51043 52.1245 2.62022 52.3441C2.73001 52.6003 2.85809 52.8564 3.00447 53.1126C4.06575 55.1986 5.78575 55.9305 8.16448 55.3084C8.8964 55.1254 9.61001 54.8509 10.3053 54.485C11.0007 54.1556 11.6594 53.753 12.2815 53.2773C13.233 52.582 14.1296 51.8318 14.9713 51.0267C15.813 50.2215 16.6181 49.3798 17.3866 48.5015C18.8139 46.8547 20.2228 45.2079 21.6134 43.5611C23.0041 41.9143 24.3947 40.2126 25.7854 38.456C26.9198 37.0654 27.9994 35.6381 29.0241 34.1743C30.0488 32.7105 31.0917 31.2466 32.153 29.7828C32.153 29.7828 32.1713 29.7462 32.2079 29.673V29.6181C32.0981 29.5083 31.9883 29.4534 31.8786 29.4534C31.6956 29.5266 31.5309 29.5998 31.3845 29.673C31.2381 29.7096 31.0734 29.7645 30.8905 29.8377C28.6947 30.7526 26.5173 31.6675 24.3581 32.5824C22.2356 33.4607 20.0764 34.3756 17.8807 35.3271C16.5998 35.8394 15.3373 36.37 14.093 36.919C12.8487 37.4679 11.6045 38.0352 10.3602 38.6207C9.7381 38.9135 9.15257 39.2428 8.60363 39.6088C8.05469 39.9747 7.48746 40.3224 6.90193 40.6518C6.82873 40.6883 6.75554 40.6883 6.68235 40.6518C6.60916 40.6518 6.53597 40.6518 6.46278 40.6518C6.20661 40.5786 6.2432 40.4322 6.57256 40.2126C6.86533 40.0296 7.1581 39.8283 7.45086 39.6088C7.74363 39.4258 8.03639 39.2428 8.32916 39.0598C8.8781 38.7671 9.42703 38.4743 9.97597 38.1815C10.5249 37.8888 11.0921 37.596 11.6777 37.3032C13.1781 36.6811 14.6602 36.059 16.1241 35.4369C17.6245 34.7781 19.1249 34.1377 20.6253 33.5156C22.4917 32.7105 24.3581 31.9237 26.2245 31.1551C28.1275 30.35 30.0305 29.5632 31.9334 28.7947C32.4458 28.6117 32.8849 28.3556 33.2509 28.0262C33.6534 27.6968 34.0194 27.3126 34.3488 26.8734C34.6781 26.4709 35.0075 26.0866 35.3368 25.7207C35.7028 25.3181 36.0688 24.9156 36.4347 24.513C36.6177 24.33 36.8007 24.2934 36.9837 24.4032C37.2032 24.513 37.3496 24.6777 37.4228 24.8973V25.3364V25.9402C37.4228 26.3794 37.6241 26.6173 38.0266 26.6539C38.2096 26.6539 38.3743 26.6722 38.5207 26.7088C38.7037 26.7088 38.8866 26.7271 39.0696 26.7636ZM35.3917 27.1479C35.9041 27.1113 36.2334 27.0198 36.3798 26.8734C36.5262 26.7271 36.5628 26.416 36.4896 25.9402C36.4896 25.8305 36.4713 25.7573 36.4347 25.7207C36.2517 25.7207 36.142 25.739 36.1054 25.7756L35.282 27.093H35.2271C35.2271 27.093 35.2088 27.1296 35.1722 27.2028C35.1356 27.2028 35.0807 27.2394 35.0075 27.3126C35.0075 27.3126 35.0441 27.3309 35.1173 27.3675C35.1173 27.3309 35.1173 27.3126 35.1173 27.3126C35.1539 27.276 35.1722 27.2394 35.1722 27.2028C35.2088 27.1662 35.2454 27.1479 35.282 27.1479V27.093C35.3186 27.1296 35.3551 27.1479 35.3917 27.1479ZM37.6265 48.4467C37.6631 45.702 37.8461 43.1586 38.1755 40.8164C38.5414 38.5109 38.9806 36.242 39.4929 34.0096C40.298 30.6794 41.2129 27.4407 42.2376 24.2934C43.2623 21.1096 44.415 17.9258 45.6959 14.7419C45.9887 14.01 46.2997 13.3147 46.6291 12.656C46.995 11.9607 47.3427 11.2653 47.6721 10.57C48.0746 9.76491 48.6236 9.12448 49.3189 8.64874C49.6848 8.35597 50.0874 8.30108 50.5265 8.48405C50.9657 8.63044 51.1853 8.9415 51.1853 9.41725C51.1853 9.89299 51.167 10.3687 51.1304 10.8445C51.0938 11.2836 51.0206 11.7045 50.9108 12.107C50.7278 12.8755 50.5082 13.6258 50.2521 14.3577C49.9959 15.0896 49.7397 15.8215 49.4836 16.5534C48.7882 18.5296 48.0746 20.4875 47.3427 22.427C46.6108 24.33 45.8057 26.233 44.9274 28.136C44.415 29.1973 43.8478 30.2585 43.2257 31.3198C42.6401 32.3445 41.9265 33.296 41.0848 34.1743C40.8286 34.4305 40.6457 34.7049 40.5359 34.9977C40.4627 35.2905 40.3895 35.5832 40.3163 35.876C40.1333 36.7177 39.9503 37.5411 39.7674 38.3462C39.621 39.1513 39.4929 39.9747 39.3831 40.8164C38.944 43.9637 38.7793 47.1292 38.8891 50.313C38.9989 52.033 39.2916 53.625 39.7674 55.0888C39.9138 55.4547 40.0784 55.8024 40.2614 56.1318C40.4444 56.4611 40.7189 56.7173 41.0848 56.9003C41.341 57.0833 41.5972 57.193 41.8533 57.2296C42.1095 57.3028 42.384 57.2662 42.6767 57.1199C43.0061 56.9735 43.3172 56.8271 43.6099 56.6807C43.9393 56.5343 44.2504 56.3513 44.5431 56.1318C45.3116 55.5828 46.0618 54.9424 46.7938 54.2105C48.1844 52.8198 49.5567 51.4109 50.9108 49.9837C52.2648 48.593 53.6189 47.1658 54.9729 45.702C56.7295 43.799 58.4312 41.8777 60.078 39.9381C61.7614 37.9986 63.3534 35.9675 64.8538 33.8449C64.927 33.7717 64.9636 33.7168 64.9636 33.6803C65.0002 33.6437 65.0551 33.6071 65.1282 33.5705C65.421 33.3875 65.6223 33.3509 65.7321 33.4607C65.8785 33.5705 65.8968 33.7168 65.787 33.8998C65.6406 34.156 65.4942 34.4122 65.3478 34.6683C65.2014 34.8879 65.0368 35.1075 64.8538 35.3271C64.0853 36.3151 63.3168 37.3032 62.5482 38.2913C61.7797 39.316 60.9746 40.3041 60.1329 41.2556C58.4129 43.2318 56.6746 45.1713 54.918 47.0743C53.198 49.0139 51.4048 50.9169 49.5384 52.7833C49.0261 53.2956 48.4955 53.8079 47.9465 54.3203C47.4342 54.8326 46.9035 55.345 46.3546 55.8573C45.9155 56.2599 45.458 56.6258 44.9823 56.9552C44.5065 57.2845 43.9576 57.5407 43.3355 57.7237C42.4938 57.9799 41.7069 57.9799 40.975 57.7237C40.2431 57.4675 39.6393 56.9552 39.1635 56.1867C38.8708 55.7109 38.6329 55.1986 38.4499 54.6496C38.2669 54.1373 38.1389 53.6067 38.0657 53.0577C37.9193 52.1428 37.7912 51.2645 37.6814 50.4228C37.5716 49.6177 37.5533 48.959 37.6265 48.4467ZM50.307 10.4053C50.307 10.0394 50.307 9.85639 50.307 9.85639L50.1423 9.25257C50.0325 9.32576 49.9227 9.38065 49.8129 9.41725C49.7397 9.45384 49.6665 9.50874 49.5933 9.58193C49.1908 10.0211 48.8431 10.5151 48.5504 11.0641C48.2576 11.5764 48.0014 12.107 47.7818 12.656C47.3061 13.827 46.8304 14.9981 46.3546 16.1692C45.8789 17.3402 45.4397 18.5296 45.0372 19.7373C44.3052 21.75 43.6099 23.7811 42.9512 25.8305C42.3291 27.8432 41.7618 29.8926 41.2495 31.9785C41.2129 32.0883 41.1946 32.1981 41.1946 32.3079C41.2312 32.3811 41.2495 32.4726 41.2495 32.5824C41.3227 32.5092 41.3959 32.436 41.4691 32.3628C41.5423 32.2896 41.6155 32.2164 41.6886 32.1432C41.9814 31.6309 42.2742 31.1551 42.5669 30.716C42.8597 30.2402 43.1525 29.7462 43.4452 29.2339C44.7627 26.5624 45.9155 23.8543 46.9035 21.1096C47.8916 18.3283 48.8614 15.5287 49.8129 12.7109C49.9593 12.3083 50.0508 11.9058 50.0874 11.5032C50.1606 11.0641 50.2338 10.6981 50.307 10.4053ZM84.4487 33.3509C84.5585 33.2411 84.6134 33.2594 84.6134 33.4058C84.6866 33.5156 84.6866 33.6071 84.6134 33.6803C84.5402 33.79 84.4487 33.8815 84.3389 33.9547C82.2529 35.0526 80.1487 36.1322 78.0261 37.1934C75.9036 38.2181 73.7261 39.1147 71.4938 39.8832C70.7985 40.1394 70.0848 40.3407 69.3529 40.4871C68.6576 40.67 67.944 40.853 67.2121 41.036C66.8827 41.1458 66.535 41.2007 66.1691 41.2007C65.547 41.1641 65.0529 40.9628 64.687 40.5969C64.3576 40.2675 64.2112 39.7917 64.2478 39.1696C64.2844 38.8403 64.3393 38.3645 64.4125 37.7424C64.4857 37.0837 64.5772 36.4066 64.687 35.7113C64.7967 35.016 64.9065 34.3573 65.0163 33.7351C65.1627 33.113 65.3274 32.6556 65.5104 32.3628C65.5104 32.2896 65.5653 32.253 65.675 32.253C65.7482 32.2164 65.8397 32.1798 65.9495 32.1432C66.0593 32.1066 66.1508 32.1249 66.224 32.1981C66.2972 32.2347 66.3521 32.3079 66.3887 32.4177C66.4253 32.5275 66.4253 32.619 66.3887 32.6922C66.2423 32.9117 66.1142 33.296 66.0044 33.8449C65.8946 34.3573 65.7848 34.9245 65.675 35.5466C65.6018 36.1322 65.5287 36.6994 65.4555 37.2483C65.3823 37.7973 65.3274 38.1815 65.2908 38.4011C65.2542 38.5475 65.2176 38.6756 65.181 38.7854C65.1444 38.9317 65.1444 39.0781 65.181 39.2245C65.181 40.1028 65.7299 40.5237 66.8278 40.4871L68.2002 40.2126C70.0665 39.7369 71.8597 39.133 73.5797 38.4011C75.2997 37.7058 77.038 36.9373 78.7946 36.0956C79.5997 35.693 80.3865 35.2905 81.1551 34.8879C81.9236 34.4854 82.6921 34.0828 83.4606 33.6803L84.4487 33.3509ZM66.6082 28.0811C66.5716 28.0445 66.5533 27.9713 66.5533 27.8615C66.5533 27.7883 66.5533 27.7151 66.5533 27.6419C66.5533 27.5688 66.535 27.4407 66.4984 27.2577C66.5716 26.5258 66.7363 25.8122 66.9925 25.1168C67.2853 24.3849 67.6878 23.6896 68.2002 23.0309C68.2733 22.9211 68.4563 22.8296 68.7491 22.7564C68.8223 22.7198 68.9504 22.7381 69.1333 22.8113C69.1699 22.8113 69.1882 22.8479 69.1882 22.9211C69.1882 22.9943 69.1699 23.0492 69.1333 23.0858C68.5112 23.8177 68.0538 24.6045 67.761 25.4462C67.5048 26.2513 67.3401 27.1296 67.267 28.0811C67.267 28.1909 67.2121 28.3007 67.1023 28.4105C66.9925 28.4837 66.901 28.4837 66.8278 28.4105L66.6082 28.0811ZM97.9401 19.5726C96.6226 19.536 95.3235 19.5909 94.0426 19.7373C92.7618 19.8836 91.4809 20.1032 90.2001 20.396C89.7975 20.5058 89.3767 20.5973 88.9375 20.6705C88.535 20.7436 88.1324 20.8168 87.7299 20.89C87.2907 20.9998 87.0162 21.2743 86.9065 21.7134C86.7235 22.8845 86.5039 24.0373 86.2477 25.1717C86.0282 26.2696 85.8269 27.4041 85.6439 28.5751C85.2779 30.4781 84.9303 32.3811 84.6009 34.2841C84.2716 36.1505 83.9605 38.0534 83.6677 39.993C83.4482 41.3471 83.2652 42.7011 83.1188 44.0552C83.009 45.4092 82.9907 46.7815 83.0639 48.1722C83.0639 48.5747 83.1005 48.959 83.1737 49.325C83.2469 49.6909 83.375 50.0569 83.5579 50.4228C83.7043 50.679 83.8873 50.8437 84.1069 50.9169C84.3264 51.0267 84.546 51.0084 84.7656 50.862C85.1682 50.6424 85.5524 50.4045 85.9184 50.1484C86.3209 49.9288 86.7052 49.6726 87.0711 49.3798C88.7911 47.8794 90.2916 46.3058 91.5724 44.659L98.8184 35.2722C99.1111 34.9062 99.4222 34.5768 99.7516 34.2841C100.081 33.9547 100.447 33.6986 100.849 33.5156C101.032 33.4424 101.234 33.4058 101.453 33.4058C101.673 33.3692 101.874 33.3326 102.057 33.296C102.13 33.296 102.203 33.3326 102.277 33.4058L102.222 33.5156C101.453 33.8815 100.776 34.339 100.191 34.8879C99.6418 35.4003 99.1111 35.9675 98.5988 36.5896C98.1231 37.2117 97.6656 37.8522 97.2265 38.5109C96.7873 39.1696 96.3116 39.7917 95.7992 40.3773C95.0673 41.219 94.372 42.0973 93.7133 43.0122C93.0911 43.9271 92.4324 44.842 91.7371 45.7569C90.9686 46.7084 90.1635 47.5867 89.3218 48.3918C88.4801 49.2335 87.5652 50.002 86.5771 50.6973C85.772 51.2462 84.912 51.5024 83.9971 51.4658C83.3384 51.3926 82.8992 51.0998 82.6796 50.5875C82.5699 50.2947 82.4601 50.0203 82.3503 49.7641C82.2771 49.5079 82.2405 49.2335 82.2405 48.9407C82.1673 47.7696 82.149 46.6169 82.1856 45.4824C82.2222 44.3479 82.332 43.1952 82.515 42.0241L83.4482 35.9858L85.4243 25.1717C85.4609 25.0253 85.4975 24.879 85.5341 24.7326C85.6073 24.5862 85.6073 24.4581 85.5341 24.3483C85.3511 23.9458 85.3145 23.5432 85.4243 23.1407C85.5341 22.7381 85.6256 22.3356 85.6988 21.933C85.8086 21.4939 85.6256 21.3292 85.1499 21.439C82.9175 22.0245 80.7218 22.6283 78.5626 23.2505C76.3669 23.836 74.1894 24.5496 72.0303 25.3913C71.8473 25.4645 71.6643 25.5377 71.4813 25.6109C71.2618 25.6841 71.0422 25.6841 70.8226 25.6109C70.7128 25.6109 70.6579 25.5743 70.6579 25.5011C70.6579 25.3181 70.6945 25.2083 70.7677 25.1717C70.8775 25.0985 71.0056 25.0436 71.152 25.0071C71.2618 24.9339 71.3715 24.8607 71.4813 24.7875C75.6898 23.2871 79.935 22.0245 84.2167 20.9998C84.8388 20.8534 85.2962 20.7436 85.589 20.6705C85.8818 20.5973 86.1013 20.5058 86.2477 20.396C86.3941 20.2496 86.4856 20.0117 86.5222 19.6824C86.5954 19.353 86.7235 18.859 86.9065 18.2002C87.126 17.3219 87.3456 16.4436 87.5652 15.5653C87.7848 14.687 88.1141 13.827 88.5533 12.9853C88.6631 12.7658 88.8826 12.5096 89.212 12.2168C89.2486 12.1436 89.3035 12.1253 89.3767 12.1619C89.4499 12.1619 89.5048 12.1802 89.5413 12.2168C89.6877 12.29 89.7609 12.3998 89.7609 12.5462C89.6145 13.0585 89.4682 13.5526 89.3218 14.0283C89.1754 14.5041 89.0107 14.9981 88.8277 15.5104C88.6082 16.2058 88.3703 16.8828 88.1141 17.5415C87.8945 18.2002 87.675 18.859 87.4554 19.5177C87.3822 19.7007 87.4005 19.8653 87.5103 20.0117C87.6201 20.1215 87.7848 20.1581 88.0043 20.1215L89.0473 19.9019C90.6941 19.6092 92.3226 19.353 93.9328 19.1334C95.5431 18.8773 97.1899 18.7858 98.8733 18.859C99.3856 18.8956 99.8797 18.9504 100.355 19.0236C100.831 19.0602 101.289 19.17 101.728 19.353L101.892 19.5177C101.819 19.5909 101.764 19.6275 101.728 19.6275C101.581 19.6275 101.435 19.6458 101.289 19.6824C101.179 19.6824 101.051 19.6824 100.904 19.6824L97.9401 19.5726ZM104.213 32.6922C104.286 32.7288 104.414 32.7837 104.597 32.8568C104.816 32.8934 105.018 32.9483 105.201 33.0215C105.274 33.0581 105.31 33.0947 105.31 33.1313C105.347 33.1679 105.402 33.2228 105.475 33.296L105.091 33.4607H104.926C104.231 33.0947 103.627 33.0398 103.115 33.296C102.602 33.5156 102.145 33.8449 101.742 34.2841C101.23 34.8696 100.809 35.4917 100.48 36.1505C100.187 36.8092 100.077 37.5411 100.15 38.3462C100.224 38.7488 100.388 39.0415 100.644 39.2245C100.901 39.4441 101.23 39.5173 101.633 39.4441C102.364 39.2977 103.096 39.0781 103.828 38.7854C105.109 38.273 106.39 37.7424 107.671 37.1934C108.988 36.6079 110.306 36.059 111.623 35.5466C112.575 35.1441 113.544 34.7598 114.533 34.3939C115.521 34.0279 116.509 33.662 117.497 33.296C117.863 33.2228 118.137 33.1862 118.32 33.1862C118.393 33.1862 118.448 33.2045 118.485 33.2411C118.522 33.2777 118.576 33.3143 118.65 33.3509C118.576 33.4607 118.485 33.5522 118.375 33.6254C118.375 33.6986 118.32 33.7351 118.21 33.7351C116.344 34.2475 114.551 34.9062 112.831 35.7113C111.147 36.4798 109.427 37.23 107.671 37.962C107.195 38.1449 106.738 38.3279 106.299 38.5109C105.859 38.7305 105.402 38.9317 104.926 39.1147C104.414 39.2977 103.901 39.4624 103.389 39.6088C102.913 39.7552 102.419 39.9015 101.907 40.0479C101.468 40.1577 101.047 40.1577 100.644 40.0479C100.279 39.9747 99.9674 39.7917 99.7113 39.499C99.4551 39.2428 99.2721 38.9135 99.1623 38.5109C99.0525 38.1449 99.0525 37.7424 99.1623 37.3032C99.4185 36.4981 99.7296 35.7479 100.096 35.0526C100.498 34.3573 101.065 33.7717 101.797 33.296C102.2 33.0398 102.547 32.8751 102.84 32.802C103.133 32.7288 103.59 32.6922 104.213 32.6922ZM116.989 44.9884C116.989 41.8045 117.209 38.5841 117.648 35.3271C118.27 30.4964 119.258 25.7939 120.612 21.2194C122.003 16.6449 123.632 12.107 125.498 7.60576C125.901 6.65427 126.34 5.72107 126.815 4.80618C127.328 3.85469 127.913 2.95809 128.572 2.11639C128.828 1.82362 129.084 1.54915 129.341 1.29298C129.597 1.00022 129.908 0.762344 130.274 0.579365C130.896 0.286598 131.481 0.213407 132.03 0.35979C132.579 0.506174 133.018 0.872131 133.348 1.45766C133.531 1.78702 133.659 2.11639 133.732 2.44575C133.805 2.77511 133.86 3.12277 133.897 3.48873C133.933 4.44022 133.878 5.35511 133.732 6.23341C133.586 7.11171 133.384 8.00831 133.128 8.9232C131.921 13.2781 129.853 17.2304 126.925 20.7802C126.193 21.6585 125.443 22.5185 124.675 23.3602C123.943 24.1653 123.211 24.9888 122.479 25.8305C122.259 26.0866 122.04 26.3245 121.82 26.5441C121.601 26.7636 121.344 26.9649 121.052 27.1479C120.21 27.6602 119.698 28.4471 119.515 29.5083C119.149 31.5943 118.819 33.6803 118.526 35.7662C118.234 37.8522 118.087 39.9564 118.087 42.079V42.7377L118.252 43.0671C118.398 42.9939 118.472 42.9207 118.472 42.8475C118.874 41.3105 119.387 39.8466 120.009 38.456C120.667 37.0654 121.363 35.693 122.095 34.339C122.241 34.0462 122.406 33.7717 122.589 33.5156C122.772 33.2594 122.955 33.0032 123.138 32.7471C123.321 32.5275 123.522 32.3262 123.741 32.1432C124.034 31.9237 124.345 31.8688 124.675 31.9785C125.041 32.0883 125.297 32.3079 125.443 32.6373C125.626 33.113 125.699 33.5705 125.663 34.0096C125.663 34.4488 125.644 34.9062 125.608 35.382C125.571 35.8943 125.535 36.3883 125.498 36.8641C125.461 37.3398 125.443 37.8156 125.443 38.2913C125.407 38.4743 125.461 38.6756 125.608 38.8952C125.644 38.9683 125.699 39.0232 125.772 39.0598C125.846 39.0964 125.901 39.0964 125.937 39.0598L126.815 38.456C128.206 37.4679 129.633 36.5896 131.097 35.8211C132.598 35.0526 134.171 34.4305 135.818 33.9547C136.33 33.8083 136.843 33.6986 137.355 33.6254C137.867 33.5156 138.38 33.4058 138.892 33.296C138.929 33.296 139.02 33.3692 139.167 33.5156C139.093 33.5888 139.038 33.6254 139.002 33.6254C138.819 33.6986 138.654 33.7717 138.508 33.8449C138.361 33.9181 138.197 33.973 138.014 34.0096C136.074 34.3024 134.263 34.8696 132.579 35.7113C130.932 36.553 129.304 37.5228 127.694 38.6207L125.937 39.7735C125.791 39.8466 125.626 39.8466 125.443 39.7735C125.26 39.7369 125.114 39.6454 125.004 39.499C124.858 39.2428 124.729 38.9866 124.62 38.7305C124.547 38.4743 124.528 38.1998 124.565 37.9071C124.565 37.102 124.62 36.2603 124.729 35.382C124.803 34.9794 124.839 34.5769 124.839 34.1743C124.876 33.7351 124.821 33.3143 124.675 32.9117C124.565 32.7288 124.455 32.6373 124.345 32.6373C124.309 32.6007 124.199 32.6373 124.016 32.7471C123.43 33.5888 122.9 34.4671 122.424 35.382C121.948 36.2603 121.509 37.1752 121.107 38.1266C119.643 41.4203 118.673 44.7871 118.197 48.2271C118.124 48.593 118.051 48.8675 117.978 49.0505C117.978 49.1237 117.941 49.1786 117.868 49.2152C117.795 49.2518 117.74 49.2701 117.703 49.2701C117.63 49.2335 117.538 49.1969 117.429 49.1603C117.319 49.1237 117.246 49.0688 117.209 48.9956C117.099 48.776 117.044 48.5015 117.044 48.1722C117.008 47.6598 116.989 47.1292 116.989 46.5803C116.989 46.0679 116.989 45.5373 116.989 44.9884ZM133.128 4.86107C133.092 4.45852 133.073 4.07426 133.073 3.7083C133.073 3.34235 133.037 2.95809 132.964 2.55554C132.854 1.89681 132.524 1.36617 131.975 0.963619C131.573 0.670855 131.189 0.652557 130.823 0.908726C129.944 1.49426 129.249 2.28107 128.737 3.26915C128.334 3.89128 127.95 4.53171 127.584 5.19043C127.255 5.81256 126.944 6.47129 126.651 7.16661C125.333 10.1675 124.162 13.2232 123.138 16.3339C122.149 19.4079 121.235 22.5368 120.393 25.7207C120.283 25.9768 120.265 26.2513 120.338 26.5441C120.338 26.5807 120.375 26.6356 120.448 26.7088C120.521 26.7454 120.558 26.7454 120.558 26.7088C120.741 26.5624 120.924 26.416 121.107 26.2696C121.326 26.1232 121.527 25.9585 121.71 25.7756C122.662 24.7875 123.577 23.7811 124.455 22.7564C125.37 21.6951 126.248 20.6156 127.09 19.5177C129.505 16.407 131.262 12.9121 132.36 9.03299C132.543 8.33767 132.707 7.66065 132.854 7.00192C133 6.3066 133.092 5.59299 133.128 4.86107ZM154.195 40.4871L154.579 33.5156C154.579 33.4058 154.579 33.296 154.579 33.1862C154.616 33.0764 154.634 32.9849 154.634 32.9117L155.128 20.6705C155.128 20.3777 155.128 20.1032 155.128 19.847C155.128 19.5543 155.165 19.2615 155.238 18.9687C155.421 18.2368 155.458 17.5049 155.348 16.773C155.238 16.0411 155.146 15.3092 155.073 14.5773C154.854 13.1134 154.012 12.1802 152.548 11.7777C151.963 11.5947 151.377 11.5032 150.792 11.5032C150.206 11.4666 149.62 11.5764 149.035 11.8326C148.376 12.0887 147.718 12.3449 147.059 12.6011C146.4 12.8573 145.76 13.1317 145.138 13.4245L144.314 13.6441C144.204 13.6441 144.149 13.6075 144.149 13.5343C144.076 13.3147 144.058 13.1866 144.095 13.15C144.278 12.8938 144.479 12.7109 144.698 12.6011C145.43 12.1253 146.199 11.7594 147.004 11.5032C147.772 11.247 148.578 11.0275 149.419 10.8445C150.371 10.6249 151.304 10.387 152.219 10.1309C153.17 9.8381 154.122 9.56363 155.073 9.30746C155.586 9.12448 155.878 8.83171 155.952 8.42916C156.061 8.0998 156.171 7.78873 156.281 7.49597C156.427 7.16661 156.592 6.83724 156.775 6.50788C156.848 6.25171 157.013 6.16022 157.269 6.23341C157.342 6.23341 157.415 6.28831 157.489 6.3981C157.562 6.47129 157.598 6.54448 157.598 6.61767C157.635 6.87384 157.653 7.13001 157.653 7.38618C157.653 7.60576 157.653 7.84363 157.653 8.0998C157.653 8.50235 157.818 8.64874 158.147 8.53895C159.355 8.31937 160.563 8.0998 161.77 7.88023C162.978 7.66065 164.167 7.42278 165.338 7.16661C165.412 7.16661 165.485 7.16661 165.558 7.16661C165.631 7.13001 165.704 7.11171 165.778 7.11171C167.315 6.96533 168.815 6.81895 170.279 6.67256C171.779 6.52618 173.298 6.52618 174.835 6.67256C176.079 6.74575 177.287 6.91044 178.458 7.16661C179.629 7.38618 180.745 7.86193 181.806 8.59384C181.843 8.63044 181.861 8.74023 181.861 8.9232C181.861 9.06959 181.806 9.08789 181.697 8.9781C181.441 8.9415 181.184 8.85001 180.928 8.70363C180.599 8.55725 180.269 8.41086 179.94 8.26448C179.611 8.1181 179.281 8.00831 178.952 7.93512C178.403 7.75214 177.854 7.60576 177.305 7.49597C176.793 7.38618 176.244 7.33129 175.658 7.33129C174.378 7.36788 173.097 7.36788 171.816 7.33129C170.572 7.29469 169.309 7.33129 168.028 7.44107C166.601 7.58746 165.174 7.77044 163.746 7.99001C162.319 8.20959 160.91 8.50235 159.52 8.86831C159.483 8.86831 159.446 8.88661 159.41 8.9232C159.41 8.9232 159.392 8.9232 159.355 8.9232L157.763 9.36235C157.69 9.69171 157.598 10.0211 157.489 10.3504C157.379 10.6798 157.306 11.0275 157.269 11.3934C157.159 13.0402 157.049 14.687 156.94 16.3339C156.866 17.9807 156.793 19.6275 156.72 21.2743L156.006 31.3747C155.97 31.7407 155.952 32.1066 155.952 32.4726C155.952 32.802 155.952 33.1496 155.952 33.5156L155.512 42.3535C155.476 43.122 155.458 43.8905 155.458 44.659C155.494 45.4275 155.622 46.196 155.842 46.9645C155.842 47.0377 155.823 47.0926 155.787 47.1292C155.75 47.2024 155.714 47.2756 155.677 47.3488C155.604 47.3122 155.531 47.2939 155.458 47.2939C155.421 47.2939 155.384 47.2573 155.348 47.1841C155.055 46.6352 154.799 46.0679 154.579 45.4824C154.36 44.9335 154.25 44.3296 154.25 43.6709C154.286 43.122 154.286 42.573 154.25 42.0241C154.25 41.5118 154.25 40.9994 154.25 40.4871H154.195ZM156.61 10.5151H156.665V10.076C156.665 9.89299 156.61 9.76491 156.5 9.69172C156.427 9.58193 156.318 9.56363 156.171 9.63682L151.944 10.8445L151.78 11.0092C151.816 11.0092 151.871 11.0458 151.944 11.119L152.329 11.2287C154.451 11.6679 155.64 12.9304 155.897 15.0164C155.897 15.1262 155.915 15.1994 155.952 15.236L156.116 15.6202L156.281 15.2909L156.61 10.5151ZM158.858 37.5228C158.968 36.9007 159.096 36.242 159.242 35.5466C159.425 34.8147 159.681 34.1194 160.011 33.4607C160.486 32.5458 161.145 31.9603 161.987 31.7041C162.536 31.5211 163.012 31.5943 163.414 31.9237C163.817 32.2164 164 32.6373 163.963 33.1862C163.963 33.8449 163.743 34.4305 163.304 34.9428C162.865 35.4186 162.316 35.7113 161.657 35.8211H160.834C160.358 35.8943 160.12 36.1139 160.12 36.4798C160.084 36.8824 160.047 37.3032 160.011 37.7424C160.011 38.1449 160.029 38.5658 160.066 39.0049C160.175 40.1028 160.816 40.5969 161.987 40.4871C162.17 40.4505 162.371 40.4139 162.591 40.3773C162.81 40.3407 163.012 40.2858 163.195 40.2126C163.707 40.0296 164.201 39.8466 164.677 39.6637C165.152 39.4807 165.628 39.2611 166.104 39.0049C167.604 38.273 168.885 37.6326 169.946 37.0837C171.044 36.5347 172.106 36.0407 173.13 35.6015C174.155 35.1624 175.253 34.7598 176.424 34.3939C177.595 34.0279 179.004 33.6437 180.651 33.2411C180.687 33.2411 180.742 33.2777 180.815 33.3509V33.4058C180.779 33.4424 180.76 33.4607 180.76 33.4607C180.578 33.6437 180.413 33.7534 180.266 33.79C178.839 34.2292 177.705 34.5768 176.863 34.833C176.058 35.0526 175.308 35.3088 174.612 35.6015C173.954 35.8577 173.24 36.1871 172.472 36.5896C171.74 36.9556 170.715 37.4679 169.397 38.1266C168.702 38.4926 168.007 38.8403 167.312 39.1696C166.653 39.5356 165.957 39.8832 165.226 40.2126C164.823 40.3956 164.42 40.542 164.018 40.6518C163.652 40.7615 163.268 40.8896 162.865 41.036C161.584 41.4386 160.578 41.2739 159.846 40.542C159.114 39.81 158.785 38.8037 158.858 37.5228ZM163.085 33.0215C163.012 32.9483 162.938 32.8568 162.865 32.7471C162.829 32.6373 162.774 32.5458 162.7 32.4726C162.408 32.3262 162.078 32.3811 161.712 32.6373C161.456 32.8934 161.237 33.1862 161.054 33.5156C160.907 33.8083 160.779 34.1194 160.669 34.4488C160.596 34.6683 160.596 34.9245 160.669 35.2173C160.706 35.2905 160.834 35.3454 161.054 35.382C161.273 35.382 161.456 35.3454 161.603 35.2722C162.042 35.0526 162.389 34.7781 162.646 34.4488C162.902 34.0828 163.048 33.6071 163.085 33.0215ZM183.126 32.8568C183.272 32.8203 183.474 32.802 183.73 32.802C184.425 32.802 184.846 33.0947 184.992 33.6803L185.596 35.9309C185.669 36.2237 185.816 36.4432 186.035 36.5896C186.292 36.736 186.566 36.736 186.859 36.5896C188.652 35.8943 190.299 35.3088 191.799 34.833C193.336 34.3207 195.056 33.8083 196.959 33.296C197.179 33.2228 197.398 33.2045 197.618 33.2411C197.874 33.2411 198.13 33.2411 198.387 33.2411C198.423 33.2411 198.46 33.2777 198.496 33.3509C198.533 33.4241 198.569 33.4973 198.606 33.5705C198.569 33.5705 198.551 33.5888 198.551 33.6254C198.515 33.6986 198.496 33.7351 198.496 33.7351C198.423 33.8083 198.368 33.8449 198.332 33.8449C197.673 33.9181 196.758 34.156 195.587 34.5586C194.452 34.9611 193.263 35.4003 192.019 35.876C190.775 36.3151 189.604 36.7177 188.506 37.0837C187.408 37.413 186.584 37.5594 186.035 37.5228C185.596 37.4496 185.23 37.3215 184.938 37.1386C184.681 36.9556 184.462 36.6445 184.279 36.2054L184.169 35.6015C183.949 34.833 183.766 34.4305 183.62 34.3939C183.51 34.3573 183.163 34.5951 182.577 35.1075C182.358 35.3271 182.138 35.5649 181.918 35.8211C181.735 36.0407 181.516 36.242 181.26 36.4249C180.638 36.9739 180.07 37.3947 179.558 37.6875C179.375 37.7973 179.155 37.8522 178.899 37.8522C178.643 37.8888 178.387 37.8888 178.131 37.8522C177.948 37.8522 177.783 37.7424 177.637 37.5228C177.527 37.3032 177.509 37.102 177.582 36.919C178.277 35.0892 179.558 33.7717 181.424 32.9666C181.681 32.8568 181.955 32.8203 182.248 32.8568C182.541 32.8568 182.833 32.8386 183.126 32.802V32.8568ZM182.412 33.5156C182.339 33.4424 182.284 33.4058 182.248 33.4058C182.175 33.3326 182.12 33.3143 182.083 33.3509C181.351 33.6437 180.711 34.0462 180.162 34.5586C179.649 35.0709 179.21 35.6747 178.844 36.37C178.808 36.4432 178.789 36.5347 178.789 36.6445C178.826 36.7543 178.844 36.8458 178.844 36.919C178.954 36.919 179.046 36.9373 179.119 36.9739C179.229 36.9739 179.32 36.9556 179.393 36.919C180.528 36.0407 181.498 34.9794 182.303 33.7351L182.412 33.5156ZM197.856 35.4917L197.966 32.8568C198.002 32.7105 198.039 32.5824 198.076 32.4726C198.112 32.3262 198.167 32.1798 198.24 32.0334C198.277 31.9603 198.35 31.9054 198.46 31.8688C198.57 31.7956 198.661 31.7773 198.734 31.8139C198.808 31.8505 198.881 31.9237 198.954 32.0334C199.027 32.1066 199.064 32.1798 199.064 32.253C199.027 32.7654 198.99 33.296 198.954 33.8449C198.917 34.3573 198.862 34.8696 198.789 35.382C198.789 35.4551 198.826 35.5283 198.899 35.6015C198.936 35.5649 198.972 35.5466 199.009 35.5466C199.082 35.5466 199.137 35.51 199.173 35.4369L199.668 34.5586L200.162 34.1194C200.271 34.0096 200.436 33.973 200.656 34.0096C200.875 34.0096 201.022 34.0828 201.095 34.2292C201.314 34.522 201.442 34.7598 201.479 34.9428C201.552 35.199 201.589 35.4551 201.589 35.7113C201.589 35.9309 201.625 36.1688 201.699 36.4249C201.735 36.6079 201.717 36.8092 201.644 37.0288C201.607 37.2483 201.735 37.3764 202.028 37.413C202.284 37.413 202.43 37.3032 202.467 37.0837C202.54 36.8275 202.613 36.6079 202.687 36.4249C202.979 35.693 203.254 34.9794 203.51 34.2841C203.803 33.5522 204.096 32.8203 204.388 32.0883C204.608 31.5028 204.864 30.9356 205.157 30.3866C205.486 29.8377 205.852 29.3071 206.255 28.7947C206.548 28.4654 206.84 28.1726 207.133 27.9164C207.462 27.6602 207.828 27.4407 208.231 27.2577C208.67 27.0747 209.073 27.093 209.439 27.3126C209.805 27.4956 210.079 27.8066 210.262 28.2458C210.335 28.5385 210.39 28.8496 210.427 29.179C210.463 29.4717 210.445 29.7828 210.372 30.1122C210.225 30.8807 210.079 31.6492 209.933 32.4177C209.786 33.1496 209.658 33.8998 209.548 34.6683C209.475 35.1807 209.42 35.7113 209.384 36.2603C209.347 36.7726 209.329 37.2849 209.329 37.7973C209.329 38.1998 209.439 38.4743 209.658 38.6207C209.914 38.7671 210.244 38.7854 210.646 38.6756C211.525 38.456 212.385 38.1815 213.226 37.8522L224.589 33.4058C224.772 33.3326 224.937 33.296 225.083 33.296C225.23 33.2594 225.394 33.2228 225.577 33.1862C225.577 33.1862 225.632 33.2228 225.742 33.296C225.742 33.4424 225.742 33.5156 225.742 33.5156L225.248 33.8449L212.293 38.95C211.891 39.133 211.488 39.2428 211.085 39.2794C210.683 39.316 210.262 39.3343 209.823 39.3343C208.798 39.2611 208.249 38.7305 208.176 37.7424C208.103 36.9373 208.121 36.242 208.231 35.6564C208.377 34.9245 208.524 34.2109 208.67 33.5156C208.853 32.7837 209.018 32.0517 209.164 31.3198C209.237 30.9173 209.274 30.533 209.274 30.1671C209.311 29.8011 209.347 29.4168 209.384 29.0143C209.384 28.8313 209.365 28.63 209.329 28.4105C209.292 28.1909 209.146 28.0445 208.89 27.9713C208.633 27.8981 208.414 27.9164 208.231 28.0262C208.085 28.136 207.938 28.2824 207.792 28.4654C207.499 28.7581 207.225 29.0692 206.968 29.3985C206.749 29.7279 206.511 30.0756 206.255 30.4415C205.816 31.1734 205.431 31.9237 205.102 32.6922C204.809 33.4607 204.516 34.2475 204.224 35.0526C204.114 35.382 204.004 35.7113 203.894 36.0407C203.785 36.37 203.656 36.6994 203.51 37.0288C203.437 37.2117 203.345 37.413 203.236 37.6326C203.162 37.8156 203.053 37.9986 202.906 38.1815C202.796 38.3645 202.65 38.5109 202.467 38.6207C202.284 38.7305 202.083 38.7488 201.863 38.6756C201.351 38.5292 201.04 38.273 200.93 37.9071C200.857 37.5045 200.784 37.1203 200.71 36.7543C200.637 36.3883 200.564 36.0041 200.491 35.6015C200.454 35.6015 200.436 35.5649 200.436 35.4917C200.436 35.4551 200.418 35.4369 200.381 35.4369C200.198 35.4369 200.107 35.4734 200.107 35.5466L199.722 36.3151C199.539 36.7909 199.356 37.3215 199.173 37.9071C199.1 38.1632 199.009 38.3462 198.899 38.456C198.789 38.639 198.606 38.7305 198.35 38.7305C198.094 38.6573 197.966 38.5292 197.966 38.3462C197.893 38.1266 197.856 37.9071 197.856 37.6875C197.856 37.4679 197.856 37.2666 197.856 37.0837C197.819 36.8275 197.801 36.5713 197.801 36.3151C197.838 36.059 197.856 35.7845 197.856 35.4917Z" fill="white"/>
</svg>
