<svg width="32" height="28" viewBox="0 0 32 28" fill="none" xmlns="http://www.w3.org/2000/svg">
<path d="M18.4648 0.991211C20.75 0.991211 22.8643 1.53809 24.8076 2.63184V2.71973C24.4658 2.71973 24.1777 2.75391 23.9434 2.82227V2.91016C25.3887 3.59375 26.8926 5.00488 28.4551 7.14355C29.0801 7.14355 29.4658 7.33398 29.6123 7.71484C29.6123 7.80273 29.4219 7.90039 29.041 8.00781C29.041 8.30078 27.9814 8.91113 25.8623 9.83887C24.9053 10.4736 24.2314 10.791 23.8408 10.791H23.0791L21.248 8.59375C20.7793 8.34961 20.5254 8.1543 20.4863 8.00781V7.91992H20.8672V7.71484C20.7793 7.71484 20.3643 7.52441 19.6221 7.14355H19.2266C18.6309 7.14355 18.1523 7.0166 17.791 6.7627H16.2529C16.1064 6.7627 15.9795 6.79199 15.8721 6.85059L15.6816 6.7627C13.4648 7.45605 12.0195 8.35449 11.3457 9.45801C11.1895 9.64355 10.7744 9.77051 10.1006 9.83887V9.92676C10.1201 10.0635 10.1836 10.1318 10.291 10.1318C10.418 10.1318 10.4814 10.0977 10.4814 10.0293L11.4482 10.1318H13.1768V10.2197C13.1768 10.3467 13.1133 10.4102 12.9863 10.4102H10.6719C10.291 10.6641 9.91016 11.7529 9.5293 13.6768V14.4531C9.5293 15.2344 9.71973 16.2598 10.1006 17.5293L9.91016 17.6172H8.94336L8.37207 17.7197C8.24512 17.6514 8.14746 17.6172 8.0791 17.6172L7.88867 17.7197C7.76172 17.6514 7.66406 17.6172 7.5957 17.6172V17.7197C8.02539 18.9404 8.88965 19.9658 10.1885 20.7959C10.8232 21.2451 11.2725 21.4697 11.5361 21.4697H13.9385C15.4424 21.9189 16.5361 22.1436 17.2197 22.1436C18.5479 21.6943 19.3779 21.4697 19.71 21.4697C19.8369 21.5381 19.9346 21.5723 20.0029 21.5723C21.458 20.5957 22.2246 19.9854 22.3027 19.7412C22.6738 19.4775 23.1865 18.8037 23.8408 17.7197V17.6172H16.1504C16.0234 17.6172 15.96 17.5537 15.96 17.4268V14.7461C16.2822 14.5508 16.4434 14.3896 16.4434 14.2627L16.3555 14.0723C16.4141 13.9551 16.4434 13.8232 16.4434 13.6768C16.1211 13.5986 15.96 13.5059 15.96 13.3984C16.0869 13.2324 16.1504 13.1348 16.1504 13.1055C16.2871 13.1055 16.3555 13.1396 16.3555 13.208C17.1074 13.1396 17.6494 13.1055 17.9814 13.1055H27.9863C28.123 13.1055 28.25 13.1396 28.3672 13.208C28.4746 13.1396 28.6016 13.1055 28.748 13.1055H30.4766L31.0625 13.7793V14.3506C30.7402 14.5264 30.5449 14.9463 30.4766 15.6104C30.418 16.5479 30.3887 17.1875 30.3887 17.5293C30.7109 17.5293 30.8721 17.5928 30.8721 17.7197V17.8223C30.1396 20.3223 29.4951 21.5723 28.9385 21.5723C28.8311 21.5039 28.7041 21.4697 28.5576 21.4697C27.0537 24.1846 24.3633 26.1719 20.4863 27.4316C19.4023 27.627 18.6016 27.7246 18.084 27.7246H16.2529C11.3311 27.7246 7.4541 25.6396 4.62207 21.4697H2.0293C1.70703 21.2939 1.16016 20.2051 0.388672 18.2031V17.6172H2.98145L2.60059 14.541V14.0723C2.88379 11.6309 3.1377 10.4102 3.3623 10.4102C4.60254 10.3516 5.4082 10.3223 5.7793 10.3223V10.1318H5.67676C5.00293 10.1318 3.97754 10.0977 2.60059 10.0293C2.60059 9.93164 2.92285 9.80469 3.56738 9.64844C4.80762 6.5332 6.72656 4.25781 9.32422 2.82227C10.3398 2.82227 11.209 2.59766 11.9316 2.14844C13.6504 1.37695 15.8281 0.991211 18.4648 0.991211ZM1.82422 9.73633H2.11719V10.0293C1.89258 10.0977 1.76562 10.1318 1.73633 10.1318L1.63379 9.92676C1.65332 9.7998 1.7168 9.73633 1.82422 9.73633ZM14.5244 13.1055C15.1592 13.1543 15.4766 13.252 15.4766 13.3984C15.4766 13.5254 15.4131 13.5889 15.2861 13.5889H14.4219C14.2949 13.5889 14.2314 13.5254 14.2314 13.3984C14.2314 13.3008 14.3291 13.2031 14.5244 13.1055ZM13.2646 13.208H13.4697C13.5967 13.2275 13.6602 13.291 13.6602 13.3984V13.5889H13.2646C13.1377 13.5889 13.0742 13.5254 13.0742 13.3984C13.0938 13.2715 13.1572 13.208 13.2646 13.208Z" fill="#0AFFFD"/>
</svg>
