<svg width="27" height="42" viewBox="0 0 27 42" fill="none" xmlns="http://www.w3.org/2000/svg">
<path d="M15.6634 15.904L15.4841 16.6471L16.1202 17.0712L19.2627 19.1663C22.2219 21.1391 24.192 24.2872 24.6725 27.8111L24.8181 28.8788C25.2042 31.7102 24.361 34.5716 22.5013 36.7413C20.6006 38.9588 17.8259 40.235 14.9053 40.235H13.608C10.2901 40.235 7.10813 38.917 4.76203 36.5709L4.59619 36.405C2.52655 34.3354 1.29254 31.5754 1.13018 28.653C0.969743 25.7651 1.86692 22.9177 3.65387 20.6434L6.61646 16.8728L18.5142 4.09382L15.6634 15.904Z" stroke="url(#paint0_linear_189_348)" stroke-width="2.18857"/>
<defs>
<linearGradient id="paint0_linear_189_348" x1="-0.234253" y1="20.5224" x2="26.5757" y2="20.5225" gradientUnits="userSpaceOnUse">
<stop stop-color="#0AFFFD"/>
<stop offset="1" stop-color="#7FE786"/>
</linearGradient>
</defs>
</svg>
